<?xml version="1.0" encoding="utf-8"?>
<!-- Generator: Adobe Illustrator 16.0.0, SVG Export Plug-In . SVG Version: 6.00 Build 0)  -->
<!DOCTYPE svg PUBLIC "-//W3C//DTD SVG 1.1//EN" "http://www.w3.org/Graphics/SVG/1.1/DTD/svg11.dtd">
<svg version="1.1" id="Layer_1" xmlns="http://www.w3.org/2000/svg" xmlns:xlink="http://www.w3.org/1999/xlink" x="0px" y="0px"
	 width="140.022px" height="23.999px" viewBox="0 0 140.022 23.999" enable-background="new 0 0 140.022 23.999"
	 xml:space="preserve">
<path fill-rule="evenodd" clip-rule="evenodd" d="M0,3.936l16.208,4.043l9.109-4.254l-7.876,10.262L0,3.936L0,3.936z"/>
<path fill-rule="evenodd" clip-rule="evenodd" d="M79.516,5.904l3.83,4.746l6.985-5.66l-8.627,12.091L79.516,5.904
	L79.516,5.904z"/>
<path fill-rule="evenodd" clip-rule="evenodd" d="M35.73,14.412c-0.172,0.458-0.348,0.86-0.522,1.203
	c-0.153,0.292-0.343,0.605-0.57,0.935c-0.225,0.3-0.488,0.581-0.785,0.833c-0.297,0.253-0.648,0.492-1.048,0.715
	c-0.4,0.223-0.833,0.39-1.295,0.5c-0.463,0.111-0.982,0.167-1.558,0.167c-0.859,0-1.579-0.137-2.163-0.415
	c-0.584-0.276-1.018-0.655-1.298-1.134c-0.281-0.479-0.441-1.027-0.485-1.644c-0.008-0.11-0.008-0.25-0.001-0.42
	c0.006-0.164,0.01-0.256,0.012-0.28c0.026-0.402,0.087-0.801,0.18-1.2c0.092-0.396,0.216-0.786,0.37-1.165
	c0.154-0.378,0.338-0.756,0.554-1.134c0.454-0.801,1.139-1.492,2.051-2.07c0.912-0.581,2.059-0.87,3.435-0.87
	c1.074,0,1.88,0.208,2.425,0.628c0.543,0.417,0.88,0.927,1.013,1.525c0.046,0.229,0.076,0.435,0.09,0.625
	c0.015,0.188,0.012,0.414-0.006,0.676c-0.009,0.134-0.022,0.265-0.041,0.396s-0.033,0.241-0.044,0.328h-3.138
	c0.043-0.634-0.008-1.084-0.156-1.352c-0.146-0.268-0.422-0.402-0.827-0.402c-0.286,0-0.565,0.06-0.841,0.176
	c-0.13,0.045-0.263,0.131-0.395,0.253c-0.112,0.104-0.241,0.25-0.385,0.435c-0.295,0.402-0.531,0.971-0.707,1.704
	c-0.114,0.476-0.181,0.878-0.202,1.203c-0.031,0.461,0.021,0.819,0.157,1.075c0.199,0.42,0.539,0.628,1.014,0.628
	c0.486,0,0.87-0.161,1.147-0.479c0.167-0.188,0.304-0.381,0.417-0.586c0.136-0.238,0.26-0.525,0.372-0.855H35.73L35.73,14.412z
	 M44.665,18.426h-3.259l1.745-7.207h-2.774l-1.745,7.207h-3.26l2.33-9.631h9.293L44.665,18.426L44.665,18.426z M57.178,13.602
	c-0.236,0.983-0.594,1.813-1.074,2.496c-0.243,0.342-0.497,0.646-0.766,0.905c-0.267,0.262-0.563,0.5-0.887,0.718
	c-0.607,0.39-1.228,0.661-1.863,0.819c-0.334,0.081-0.644,0.143-0.929,0.182c-0.289,0.042-0.585,0.063-0.895,0.063
	c-0.654,0-1.265-0.095-1.84-0.289c-0.573-0.19-1.053-0.495-1.442-0.912c-0.39-0.417-0.643-0.965-0.759-1.644
	c-0.057-0.349-0.074-0.718-0.048-1.099c0.023-0.352,0.09-0.763,0.198-1.242c0.229-0.959,0.588-1.79,1.074-2.496
	c0.252-0.348,0.507-0.648,0.768-0.905c0.261-0.256,0.552-0.495,0.877-0.718c0.298-0.19,0.604-0.352,0.918-0.485
	c0.314-0.134,0.628-0.241,0.944-0.322c0.625-0.158,1.231-0.238,1.816-0.238c0.595,0,1.171,0.077,1.722,0.232
	c0.553,0.152,1.04,0.426,1.46,0.816c0.216,0.209,0.393,0.444,0.531,0.706c0.141,0.262,0.25,0.566,0.329,0.917
	c0.079,0.348,0.104,0.753,0.072,1.212C57.361,12.696,57.291,13.125,57.178,13.602L57.178,13.602z M53.812,13.602
	c0.097-0.396,0.157-0.75,0.178-1.058c0.038-0.56-0.049-0.979-0.262-1.262c-0.213-0.283-0.563-0.423-1.048-0.423
	c-0.61,0-1.111,0.229-1.507,0.685c-0.394,0.459-0.704,1.144-0.925,2.058c-0.098,0.399-0.158,0.759-0.179,1.072
	c-0.038,0.565,0.046,0.986,0.254,1.266c0.208,0.28,0.553,0.419,1.033,0.419c0.61,0,1.116-0.232,1.518-0.694
	C53.275,15.205,53.59,14.513,53.812,13.602L53.812,13.602z M67.804,13.528c-0.368,1.513-0.951,2.65-1.746,3.416
	c-0.798,0.766-1.553,1.257-2.262,1.471c-0.684,0.19-1.234,0.286-1.649,0.286c-0.532,0-1.037-0.11-1.515-0.331
	c-0.128-0.06-0.248-0.128-0.357-0.206c-0.109-0.077-0.213-0.167-0.312-0.265l-0.936,3.856H55.76l3.179-13.148h3.104L61.86,9.287
	c0.889-0.664,1.838-0.994,2.848-0.994c1.359,0,2.31,0.487,2.854,1.465c0.366,0.659,0.517,1.462,0.454,2.41
	C67.989,12.58,67.917,13.033,67.804,13.528L67.804,13.528z M64.446,13.492c0.079-0.313,0.125-0.599,0.143-0.855
	c0.018-0.262,0.004-0.5-0.045-0.715c-0.07-0.378-0.215-0.652-0.438-0.819c-0.223-0.17-0.49-0.253-0.805-0.253
	c-0.242,0-0.479,0.051-0.71,0.152s-0.458,0.256-0.685,0.462c-0.226,0.205-0.422,0.477-0.586,0.813
	c-0.166,0.334-0.308,0.739-0.425,1.215c-0.033,0.14-0.063,0.286-0.085,0.441c-0.025,0.154-0.042,0.297-0.051,0.431
	c-0.027,0.408,0.01,0.763,0.114,1.066c0.07,0.232,0.205,0.405,0.404,0.521c0.2,0.116,0.452,0.176,0.757,0.176
	c0.585,0,1.081-0.227,1.482-0.682C63.951,14.924,64.26,14.272,64.446,13.492L64.446,13.492z M77.202,11.22h-2.916l-1.745,7.207
	h-3.26l1.746-7.207h-2.909l0.584-2.425h9.083L77.202,11.22L77.202,11.22z M97.959,18.087h-3.316L94.62,17.45
	c-0.221,0.164-0.442,0.298-0.662,0.405c-0.222,0.11-0.469,0.197-0.74,0.269c-0.66,0.169-1.218,0.252-1.676,0.252
	c-0.647,0-1.174-0.077-1.578-0.232c-0.404-0.151-0.691-0.384-0.861-0.694c-0.246-0.447-0.353-0.926-0.318-1.439
	c0.011-0.164,0.037-0.336,0.079-0.524c0.146-0.61,0.387-1.12,0.727-1.527c0.339-0.405,0.744-0.721,1.217-0.941
	c0.395-0.208,0.849-0.363,1.361-0.461c0.24-0.048,0.497-0.095,0.771-0.146c0.272-0.048,0.56-0.089,0.862-0.125
	c0.303-0.036,0.512-0.063,0.628-0.081c0.334-0.044,0.584-0.083,0.742-0.113c0.213-0.044,0.358-0.098,0.438-0.16
	c0.077-0.06,0.135-0.158,0.174-0.292l0.056-0.217c0.016-0.083,0.024-0.14,0.026-0.176c0.033-0.488-0.278-0.733-0.93-0.733
	c-0.28,0-0.506,0.021-0.677,0.066c-0.169,0.044-0.316,0.127-0.437,0.253c-0.123,0.125-0.228,0.274-0.317,0.449
	c-0.087,0.173-0.168,0.399-0.245,0.67h-3.143c0.114-0.423,0.235-0.778,0.364-1.063c0.128-0.286,0.286-0.557,0.474-0.819
	c0.19-0.262,0.429-0.506,0.715-0.733c0.286-0.229,0.627-0.438,1.021-0.628c0.365-0.169,0.786-0.297,1.263-0.39
	c0.477-0.089,1-0.134,1.568-0.134c0.607,0,1.136,0.05,1.578,0.148c0.445,0.099,0.806,0.244,1.083,0.435
	c0.55,0.396,0.862,0.86,0.937,1.397c0.01,0.104,0.018,0.214,0.02,0.327s-0.001,0.235-0.01,0.37c-0.019,0.28-0.066,0.589-0.14,0.926
	l-1.026,4.119c-0.058,0.25-0.106,0.458-0.137,0.631c-0.034,0.173-0.056,0.316-0.063,0.433c0.001,0.053,0.001,0.089,0,0.113
	c0.004,0.086,0.028,0.161,0.073,0.224c0.043,0.059,0.131,0.125,0.265,0.196L97.959,18.087L97.959,18.087z M95.223,14.022
	l0.017-0.072l-0.253,0.063c-0.024,0.006-0.161,0.033-0.406,0.086c-0.248,0.054-0.46,0.093-0.637,0.12
	c-0.177,0.023-0.38,0.068-0.604,0.134c-0.226,0.063-0.434,0.137-0.62,0.218c-0.128,0.06-0.229,0.143-0.302,0.25
	c-0.076,0.108-0.131,0.253-0.173,0.441c-0.013,0.057-0.021,0.102-0.023,0.132c-0.01,0.148,0.034,0.297,0.129,0.443
	c0.074,0.086,0.17,0.151,0.287,0.19c0.117,0.042,0.271,0.062,0.466,0.062c0.381,0,0.776-0.151,1.182-0.452
	C94.691,15.333,95.003,14.793,95.223,14.022L95.223,14.022z M109.205,14.055c-0.172,0.458-0.348,0.86-0.522,1.203
	c-0.154,0.292-0.343,0.604-0.57,0.935c-0.225,0.301-0.487,0.581-0.785,0.834c-0.298,0.253-0.648,0.491-1.048,0.715
	c-0.4,0.223-0.834,0.39-1.295,0.5c-0.463,0.109-0.982,0.167-1.558,0.167c-0.859,0-1.579-0.137-2.163-0.415s-1.018-0.655-1.298-1.135
	c-0.28-0.479-0.441-1.027-0.485-1.644c-0.007-0.11-0.008-0.25-0.001-0.42c0.006-0.164,0.01-0.255,0.012-0.28
	c0.027-0.402,0.088-0.801,0.18-1.2c0.092-0.396,0.216-0.787,0.371-1.165c0.154-0.378,0.338-0.756,0.554-1.135
	c0.454-0.801,1.14-1.492,2.051-2.069c0.912-0.581,2.059-0.87,3.435-0.87c1.073,0,1.879,0.208,2.424,0.628
	c0.543,0.417,0.88,0.926,1.013,1.524c0.045,0.23,0.076,0.435,0.09,0.626c0.014,0.187,0.012,0.414-0.006,0.676
	c-0.009,0.134-0.023,0.265-0.041,0.396c-0.019,0.131-0.034,0.241-0.044,0.328h-3.138c0.042-0.634-0.008-1.084-0.156-1.352
	c-0.146-0.268-0.422-0.402-0.827-0.402c-0.286,0-0.565,0.06-0.841,0.176c-0.13,0.044-0.262,0.13-0.395,0.253
	c-0.112,0.104-0.241,0.25-0.386,0.435c-0.295,0.402-0.531,0.971-0.707,1.704c-0.114,0.477-0.181,0.878-0.202,1.204
	c-0.031,0.461,0.021,0.819,0.157,1.075c0.199,0.419,0.539,0.628,1.015,0.628c0.485,0,0.87-0.16,1.147-0.479
	c0.166-0.187,0.304-0.381,0.417-0.586c0.136-0.239,0.26-0.524,0.372-0.855H109.205L109.205,14.055z M118.929,10.862h-2.916
	l-1.745,7.207h-3.26l1.746-7.207h-2.908l0.584-2.424h9.083L118.929,10.862L118.929,10.862z M128.238,14.114h-6.797
	c-0.008,0.048-0.013,0.093-0.019,0.134c-0.005,0.045-0.012,0.096-0.016,0.155c-0.011,0.173-0.001,0.348,0.031,0.525
	c0.021,0.169,0.067,0.318,0.133,0.452c0.067,0.134,0.157,0.253,0.262,0.36c0.108,0.104,0.241,0.182,0.404,0.235
	c0.16,0.051,0.339,0.078,0.534,0.078c0.375,0,0.735-0.089,1.077-0.271c0.157-0.081,0.296-0.19,0.415-0.331s0.245-0.345,0.383-0.613
	h3.303c-0.215,0.444-0.412,0.798-0.591,1.069c-0.177,0.271-0.384,0.524-0.619,0.756c-0.211,0.232-0.467,0.453-0.771,0.658
	c-0.307,0.206-0.656,0.393-1.053,0.563c-0.781,0.336-1.717,0.506-2.808,0.506c-0.819,0-1.521-0.119-2.106-0.357
	c-0.296-0.128-0.555-0.277-0.777-0.45c-0.223-0.172-0.412-0.372-0.572-0.602c-0.158-0.229-0.28-0.482-0.369-0.753
	c-0.089-0.273-0.149-0.578-0.181-0.908c-0.01-0.11-0.015-0.241-0.015-0.39c0-0.146,0.005-0.298,0.015-0.446
	c0.025-0.379,0.09-0.792,0.19-1.239c0.262-1.072,0.714-1.999,1.354-2.784c0.641-0.784,1.414-1.371,2.323-1.754
	c0.432-0.185,0.886-0.328,1.36-0.426c0.475-0.099,0.962-0.149,1.457-0.149c0.858,0,1.567,0.14,2.128,0.422
	c0.56,0.283,0.982,0.67,1.269,1.165c0.129,0.256,0.231,0.521,0.303,0.798c0.071,0.277,0.114,0.557,0.126,0.843
	c0.013,0.283,0.009,0.554-0.008,0.81c-0.028,0.408-0.094,0.816-0.197,1.23L128.238,14.114L128.238,14.114z M125.351,12.092
	c0.023-0.134,0.039-0.256,0.046-0.366c0.027-0.402-0.049-0.691-0.228-0.863c-0.26-0.262-0.588-0.393-0.988-0.393
	c-0.33,0-0.616,0.044-0.861,0.134c-0.245,0.092-0.46,0.238-0.644,0.44c-0.153,0.176-0.287,0.346-0.397,0.507
	c-0.132,0.187-0.237,0.366-0.314,0.542H125.351L125.351,12.092z M139.795,13.17c-0.367,1.513-0.95,2.651-1.746,3.416
	c-0.797,0.765-1.553,1.257-2.262,1.471c-0.684,0.191-1.234,0.286-1.649,0.286c-0.532,0-1.037-0.11-1.515-0.33
	c-0.127-0.06-0.248-0.128-0.357-0.206c-0.109-0.077-0.213-0.167-0.312-0.265l-0.936,3.856h-3.267l3.18-13.148h3.104l-0.183,0.679
	c0.889-0.664,1.838-0.995,2.849-0.995c1.358,0,2.309,0.488,2.854,1.465c0.366,0.659,0.518,1.463,0.454,2.41
	C139.98,12.223,139.909,12.675,139.795,13.17L139.795,13.17z M136.438,13.134c0.08-0.313,0.126-0.599,0.143-0.854
	c0.018-0.262,0.004-0.5-0.045-0.715c-0.07-0.378-0.215-0.652-0.438-0.818c-0.223-0.17-0.491-0.254-0.805-0.254
	c-0.242,0-0.479,0.051-0.71,0.152c-0.231,0.102-0.459,0.256-0.685,0.462c-0.226,0.206-0.422,0.477-0.586,0.813
	c-0.166,0.333-0.308,0.738-0.425,1.215c-0.034,0.14-0.063,0.286-0.086,0.441c-0.025,0.154-0.042,0.297-0.051,0.431
	c-0.027,0.408,0.01,0.763,0.114,1.066c0.07,0.232,0.205,0.405,0.404,0.521c0.199,0.116,0.452,0.176,0.757,0.176
	c0.585,0,1.081-0.226,1.482-0.682C135.942,14.567,136.251,13.915,136.438,13.134L136.438,13.134z M16.163,6.389
	c-1.564,0-2.841-1.435-2.841-3.195S14.598,0,16.163,0c1.565,0,2.841,1.435,2.841,3.194S17.728,6.389,16.163,6.389L16.163,6.389z
	 M31.519,23.752l-19.725-4.523l-10.416,4.77l9.222-12.015L31.519,23.752L31.519,23.752z M76.328,18.065h4.301l-1.925-9.701
	L76.328,18.065L76.328,18.065z M82.641,18.065h4.301l2.388-9.63L82.641,18.065L82.641,18.065z"/>
</svg>
