<?xml version="1.0" encoding="utf-8"?>
<!-- Generator: Adobe Illustrator 16.0.0, SVG Export Plug-In . SVG Version: 6.00 Build 0)  -->
<!DOCTYPE svg PUBLIC "-//W3C//DTD SVG 1.1//EN" "http://www.w3.org/Graphics/SVG/1.1/DTD/svg11.dtd">
<svg version="1.1" id="Layer_1" xmlns="http://www.w3.org/2000/svg" xmlns:xlink="http://www.w3.org/1999/xlink" x="0px" y="0px"
	 width="11.986px" height="16px" viewBox="0 0 11.986 16" enable-background="new 0 0 11.986 16" xml:space="preserve">
<path d="M5.761,0h0.564c1.5,0.098,2.962,0.754,3.996,1.852C11.384,2.951,11.993,4.471,11.986,6
	c-0.04,1.171-0.568,2.253-1.103,3.272c-1.147,2.085-2.597,3.988-4.11,5.818C6.536,15.402,6.235,15.667,6.032,16H5.954
	c-0.02-0.033-0.06-0.098-0.08-0.132c-1.546-1.792-3.01-3.666-4.252-5.686c-0.601-1.007-1.171-2.052-1.48-3.19
	C-0.038,6.355-0.031,5.679,0.076,5.03c0.228-1.452,1.025-2.801,2.172-3.716C3.239,0.513,4.49,0.055,5.761,0z M4.063,1.39
	C3.105,1.782,2.284,2.492,1.74,3.374c-0.515,0.838-0.784,1.83-0.735,2.814c0.062,0.702,0.33,1.365,0.622,1.998
	c0.538,1.124,1.218,2.172,1.931,3.19c0.766,1.075,1.573,2.121,2.433,3.123c1.1-1.292,2.135-2.639,3.069-4.056
	c0.581-0.902,1.142-1.827,1.543-2.826c0.185-0.478,0.35-0.974,0.378-1.49c0.036-1.115-0.322-2.237-0.994-3.126
	C9.342,2.132,8.404,1.487,7.363,1.19C6.283,0.886,5.097,0.947,4.063,1.39z"/>
<path d="M5.463,3.049c0.74-0.134,1.533,0.021,2.161,0.438c0.785,0.504,1.307,1.394,1.356,2.327
	C9.031,6.528,8.805,7.254,8.37,7.82C7.841,8.517,6.993,8.967,6.117,8.994C5.366,9.03,4.605,8.766,4.038,8.271
	C3.447,7.768,3.069,7.026,3.007,6.252C2.948,5.533,3.148,4.79,3.586,4.214C4.035,3.607,4.717,3.174,5.463,3.049z M5.755,4.014
	C5.022,4.095,4.367,4.621,4.116,5.313C3.765,6.214,4.191,7.326,5.053,7.763c0.828,0.465,1.963,0.217,2.524-0.548
	C8.153,6.49,8.115,5.368,7.494,4.683C7.069,4.192,6.399,3.934,5.755,4.014z"/>
</svg>
