<?xml version="1.0" encoding="utf-8"?>
<!-- Generator: Adobe Illustrator 16.0.0, SVG Export Plug-In . SVG Version: 6.00 Build 0)  -->
<!DOCTYPE svg PUBLIC "-//W3C//DTD SVG 1.1//EN" "http://www.w3.org/Graphics/SVG/1.1/DTD/svg11.dtd">
<svg version="1.1" id="Layer_1" xmlns="http://www.w3.org/2000/svg" xmlns:xlink="http://www.w3.org/1999/xlink" x="0px" y="0px"
	 width="28.463px" height="27.987px" viewBox="0 0 28.463 27.987" enable-background="new 0 0 28.463 27.987" xml:space="preserve">
<path d="M13.645,14.705c0-0.144,0.056-0.295,0.167-0.406L27.45,0.179c0.222-0.233,0.595-0.239,0.828-0.017
	c0.233,0.228,0.239,0.6,0.011,0.834l-13.645,14.12c-0.222,0.233-0.595,0.239-0.828,0.016C13.7,15.016,13.645,14.86,13.645,14.705z"
	/>
<path d="M0,0.585C0,0.43,0.061,0.279,0.178,0.163C0.411-0.06,0.784-0.054,1.006,0.179L14.65,14.299
	c0.223,0.233,0.217,0.606-0.017,0.828s-0.606,0.217-0.828-0.017L0.167,0.997C0.056,0.88,0,0.735,0,0.585z"/>
<path d="M13.645,27.401c0-0.145,0.056-0.295,0.167-0.406l13.645-14.12c0.222-0.233,0.595-0.239,0.828-0.017
	c0.233,0.222,0.239,0.595,0.017,0.828l-13.644,14.12c-0.223,0.233-0.595,0.239-0.828,0.017C13.7,27.707,13.645,27.551,13.645,27.401
	z"/>
<path d="M0,13.282c0-0.156,0.061-0.306,0.178-0.422c0.233-0.223,0.606-0.217,0.828,0.017l13.645,14.12
	c0.223,0.234,0.217,0.606-0.017,0.828c-0.233,0.223-0.606,0.217-0.828-0.017L0.167,13.688C0.056,13.571,0,13.426,0,13.282z"/>
</svg>
