<?xml version="1.0" encoding="utf-8"?>
<!-- Generator: Adobe Illustrator 16.0.0, SVG Export Plug-In . SVG Version: 6.00 Build 0)  -->
<!DOCTYPE svg PUBLIC "-//W3C//DTD SVG 1.1//EN" "http://www.w3.org/Graphics/SVG/1.1/DTD/svg11.dtd">
<svg version="1.1" id="Layer_1" xmlns="http://www.w3.org/2000/svg" xmlns:xlink="http://www.w3.org/1999/xlink" x="0px" y="0px"
     width="20.006px" height="21.006px" viewBox="0 0 20.006 21.006" enable-background="new 0 0 20.006 21.006" xml:space="preserve">
<path fill-rule="evenodd" clip-rule="evenodd" d="M11.506,0c-4.694,0-8.5,3.806-8.5,8.5
    c0,2.239,0.872,4.269,2.287,5.787c-0.001,0.001-0.002,0.001-0.003,0.002l-4.994,4.995c-0.394,0.394-0.394,1.033,0,1.426
    c0.394,0.395,1.033,0.395,1.427,0l4.994-4.994c0.04-0.04,0.058-0.091,0.09-0.135C8.153,16.476,9.768,17,11.506,17
    c4.694,0,8.5-3.806,8.5-8.5S16.201,0,11.506,0z M11.506,15.125c-3.659,0-6.625-2.966-6.625-6.625c0-3.659,2.966-6.625,6.625-6.625
    c3.659,0,6.625,2.966,6.625,6.625C18.131,12.159,15.165,15.125,11.506,15.125z"/>
</svg>