<?xml version="1.0" encoding="utf-8"?>
<!-- Generator: Adobe Illustrator 19.0.0, SVG Export Plug-In . SVG Version: 6.00 Build 0)  -->
<svg version="1.1"
	 id="svg2" xmlns:rdf="http://www.w3.org/1999/02/22-rdf-syntax-ns#" xmlns:dc="http://purl.org/dc/elements/1.1/" xmlns:cc="http://creativecommons.org/ns#" xmlns:svg="http://www.w3.org/2000/svg" xmlns:inkscape="http://www.inkscape.org/namespaces/inkscape" xmlns:sodipodi="http://sodipodi.sourceforge.net/DTD/sodipodi-0.dtd"
	 xmlns="http://www.w3.org/2000/svg" xmlns:xlink="http://www.w3.org/1999/xlink" x="0px" y="0px" viewBox="-466.9 269 23.7 24"
	 style="enable-background:new -466.9 269 23.7 24;" xml:space="preserve">
<g id="layer1" transform="translate(0,-852.36218)">
	<path id="path3" d="M-444,1135.9c0.2-0.8,0.3-1.6,0.3-2.4c0-6.2-5.1-11.3-11.3-11.3c-0.7,0-1.3,0.1-1.9,0.2
		c-1-0.6-2.2-1-3.5-1c-3.6,0-6.5,2.9-6.5,6.5c0,1.2,0.3,2.3,0.9,3.3c-0.2,0.7-0.2,1.5-0.2,2.3c0,6.2,5.1,11.3,11.3,11.3
		c0.7,0,1.4-0.1,2.1-0.2c0.9,0.5,2,0.8,3.1,0.8c3.6,0,6.5-2.9,6.5-6.5C-443.4,1137.8-443.5,1136.8-444,1135.9L-444,1135.9z
		 M-449.3,1138.9c-0.5,0.7-1.3,1.3-2.3,1.7c-1,0.4-2.2,0.6-3.5,0.6c-1.6,0-3-0.3-4-0.8c-0.8-0.4-1.4-1-1.9-1.6
		c-0.5-0.7-0.7-1.4-0.7-2c0-0.4,0.2-0.8,0.5-1.1c0.3-0.3,0.7-0.4,1.2-0.4c0.4,0,0.7,0.1,1,0.3c0.3,0.2,0.5,0.5,0.7,1
		c0.2,0.5,0.4,0.8,0.6,1.1c0.2,0.3,0.5,0.5,0.9,0.7c0.4,0.2,1,0.3,1.6,0.3c0.9,0,1.7-0.2,2.3-0.6s0.8-0.8,0.8-1.4
		c0-0.4-0.1-0.8-0.4-1.1c-0.3-0.3-0.7-0.5-1.2-0.7s-1.2-0.3-2.1-0.5c-1.2-0.3-2.2-0.5-3-0.9c-0.8-0.3-1.5-0.8-1.9-1.4
		c-0.5-0.6-0.7-1.4-0.7-2.3s0.3-1.6,0.8-2.3c0.5-0.7,1.2-1.2,2.2-1.5c0.9-0.3,2.1-0.5,3.3-0.5c1,0,1.9,0.1,2.6,0.3
		c0.7,0.2,1.4,0.5,1.9,0.9s0.9,0.8,1.1,1.2c0.2,0.4,0.4,0.9,0.4,1.3s-0.2,0.8-0.5,1.1c-0.3,0.3-0.7,0.5-1.2,0.5
		c-0.4,0-0.7-0.1-1-0.3c-0.2-0.2-0.4-0.5-0.7-0.9c-0.3-0.5-0.6-1-1-1.3s-1-0.4-1.9-0.4c-0.8,0-1.5,0.2-2,0.5s-0.7,0.7-0.7,1.1
		c0,0.3,0.1,0.5,0.2,0.7c0.2,0.2,0.4,0.4,0.7,0.5c0.3,0.1,0.6,0.3,0.9,0.4c0.3,0.1,0.8,0.2,1.6,0.4c0.9,0.2,1.8,0.4,2.5,0.7
		c0.8,0.2,1.4,0.5,1.9,0.9s1,0.8,1.3,1.3s0.5,1.2,0.5,2C-448.5,1137.3-448.8,1138.1-449.3,1138.9L-449.3,1138.9z"/>
</g>
</svg>
