<?xml version="1.0" encoding="utf-8"?>
<!-- Generator: Adobe Illustrator 19.0.0, SVG Export Plug-In . SVG Version: 6.00 Build 0)  -->
<svg version="1.1" id="Слой_1" xmlns="http://www.w3.org/2000/svg" xmlns:xlink="http://www.w3.org/1999/xlink" x="0px" y="0px"
	 viewBox="-447.7 269.3 13.5 23.3" style="enable-background:new -447.7 269.3 13.5 23.3;" xml:space="preserve">
<g>
	<g>
		<path d="M-445,279.8c0.9,0.8,2.1,1.4,3.4,1.5c1.2,0.1,2.4-0.1,3.5-0.7c1.5-0.8,2.7-2.3,3-4c0.3-1.2,0.2-2.5-0.3-3.6
			c-0.6-1.3-1.6-2.4-2.8-3c-1.1-0.6-2.3-0.8-3.6-0.6c-1.8,0.2-3.4,1.4-4.3,2.9c-0.7,1.2-1,2.6-0.8,4
			C-446.7,277.6-446,278.9-445,279.8z M-442.8,273.7c0.4-0.4,1-0.7,1.6-0.8c0.7-0.1,1.4,0.2,1.9,0.6c0.5,0.4,0.8,1.1,0.9,1.8
			c0,0.6-0.2,1.3-0.6,1.8c-0.5,0.5-1.1,0.8-1.8,0.8s-1.4-0.3-1.8-0.7c-0.5-0.5-0.7-1.1-0.7-1.7
			C-443.5,274.7-443.2,274.1-442.8,273.7z M-434.5,282.4c-0.2-0.4-0.7-0.7-1.1-0.8c-0.5-0.1-0.9,0-1.3,0.2c-0.4,0.2-0.8,0.4-1.2,0.6
			c-2.1,0.8-4.5,0.7-6.5-0.4c-0.3-0.2-0.6-0.4-0.9-0.5c-0.5-0.1-1.1,0-1.6,0.3c-0.4,0.3-0.6,0.8-0.6,1.3s0.2,1,0.5,1.3
			c0.2,0.2,0.4,0.3,0.5,0.4c1,0.6,2.1,1,3.3,1.3c-1.1,1.1-2.1,2.1-3.2,3.2c-0.2,0.2-0.4,0.3-0.5,0.6c-0.3,0.5-0.3,1.1-0.1,1.6
			s0.6,0.9,1.1,1c0.5,0.2,1.2,0,1.6-0.3c0.2-0.1,0.3-0.3,0.4-0.4c1-1,2-2,3-3c1.1,1.1,2.2,2.2,3.4,3.4c0.6,0.6,1.6,0.6,2.3,0.1
			c0.4-0.3,0.7-0.8,0.7-1.3s-0.2-1-0.5-1.3c-1.1-1.1-2.2-2.2-3.4-3.4c1.2-0.3,2.4-0.7,3.5-1.4c0.4-0.2,0.6-0.6,0.8-1
			C-434.2,283.4-434.2,282.9-434.5,282.4z"/>
	</g>
</g>
</svg>
