<?xml version="1.0" encoding="utf-8"?>
<!-- Generator: Adobe Illustrator 19.2.1, SVG Export Plug-In . SVG Version: 6.00 Build 0)  -->
<svg version="1.1" id="Layer_1" xmlns="http://www.w3.org/2000/svg" xmlns:xlink="http://www.w3.org/1999/xlink" x="0px" y="0px"
	 viewBox="0 0 23 23" style="enable-background:new 0 0 23 23;" xml:space="preserve">
<path d="M22.3,19.2L22.2,19l0,0l-5.4-5.4c0.7-1.3,1.2-2.8,1.2-4.4c0-4.9-3.9-8.9-8.8-8.9c0,0,0,0-0.1,0
	c-4.9,0-8.8,3.9-8.8,8.8c0,4.9,3.9,8.9,8.8,8.9c0,0,0,0,0.1,0c1.6,0,3.1-0.4,4.4-1.2l5.4,5.4l0,0l0.1,0.1c0.4,0.4,1.1,0.4,1.5,0
	l1.7-1.7C22.7,20.2,22.7,19.6,22.3,19.2z M9.1,15.8c-3.6,0-6.6-3-6.5-6.7c0-3.6,3-6.6,6.6-6.6h0c1.8,0,3.4,0.7,4.6,2
	c1.2,1.3,1.9,2.9,1.9,4.7c0,1.8-0.7,3.4-1.9,4.7C12.6,15.1,10.9,15.8,9.1,15.8L9.1,15.8z M13.5,8.2h-3.1V5.1H8.4v3.1H5.3v2h3.1v3.1
	h2.1v-3.1h3.1V8.2z M9.4,9.2L9.4,9.2L9.4,9.2L9.4,9.2L9.4,9.2z"/>
</svg>
